Coordinates
version=1
nRows=10
nColumns=40
inDegrees=yes

Units are S.I. units (second, meters, Newtons, ...)
Angles are in degrees.

endheader
time	pelvis_tilt	pelvis_list	pelvis_rotation	pelvis_tx	pelvis_ty	pelvis_tz	hip_flexion_r	hip_adduction_r	hip_rotation_r	knee_angle_r	knee_angle_r_beta	ankle_angle_r	subtalar_angle_r	mtp_angle_r	hip_flexion_l	hip_adduction_l	hip_rotation_l	knee_angle_l	knee_angle_l_beta	ankle_angle_l	subtalar_angle_l	mtp_angle_l	lumbar_extension	lumbar_bending	lumbar_rotation	arm_flex_r	arm_add_r	arm_rot_r	elbow_flex_r	pro_sup_r	wrist_flex_r	wrist_dev_r	arm_flex_l	arm_add_l	arm_rot_l	elbow_flex_l	pro_sup_l	wrist_flex_l	wrist_dev_l
      3.27000000	     -0.41760980	      2.69963993	     -0.27055771	      0.28543117	      0.93968669	     -1.42355405	    -10.17018936	     -4.29493127	    -23.11424320	    -16.96110718	     -0.29602717	     11.97398321	      5.44681149	    -14.44887105	     23.73920128	      2.62207293	     18.48883761	    -12.57470962	     -0.21947009	     -5.82447735	     -0.13331340	      6.57058155	     -4.24001213	     -4.94155457	      7.47804095	      7.68036384	    -11.27649150	    -12.55705221	     34.04238155	     89.95437384	      0.00000000	      0.00000000	    -10.22373576	     12.16587278	      8.08961094	      7.17226712	     89.95437384	      0.00000000	      0.00000000
      3.28000000	     -0.29009348	      2.81550920	     -0.46408920	      0.29491739	      0.93893440	     -1.42578974	    -10.81648681	     -4.72420058	    -23.15886567	    -17.17724572	     -0.29979949	     11.90818009	      5.44745735	    -14.42946123	     23.44798613	      2.42956935	     18.64022101	    -13.39043283	     -0.23370714	     -5.46560132	      0.38471525	      6.41214770	     -4.15541346	     -5.03226054	      7.67442498	      7.16410082	    -11.13003988	    -12.69698359	     34.12608884	     89.95437384	      0.00000000	      0.00000000	    -10.12376771	     12.13111033	      8.33026945	      6.93580602	     89.95437384	      0.00000000	      0.00000000
      3.29000000	     -0.44645982	      2.74793978	     -0.58135847	      0.30427133	      0.93773052	     -1.42836742	    -10.99768628	     -4.95194784	    -22.79129017	    -17.69845385	     -0.30889629	     11.61522118	      5.26296616	    -14.15303495	     23.33549688	      2.33414662	     18.33307719	    -13.88606253	     -0.24235751	     -5.48270925	      0.43103814	      6.29332260	     -3.75937239	     -4.88512106	      7.64846422	      6.66534536	    -11.00229757	    -12.66093641	     34.17893994	     89.95437384	      0.00000000	      0.00000000	    -10.43227685	     12.08131438	      8.35904434	      7.29850641	     89.95437384	      0.00000000	      0.00000000
      3.30000000	     -0.04298679	      3.01652713	     -1.00652652	      0.31445301	      0.93750130	     -1.43068525	    -11.85159412	     -5.73064918	    -22.98305089	    -18.12900507	     -0.31641083	     11.21515284	      5.71425114	    -14.25634370	     22.35488662	      1.97329021	     18.79364948	    -14.19498523	     -0.24774923	     -5.13246136	      0.79259483	      6.14724032	     -3.93395351	     -5.13575875	      7.95872066	      6.26524324	    -10.73976377	    -13.09693606	     33.93600624	     89.95437384	      0.00000000	      0.00000000	    -10.33341358	     11.98102118	      9.20015093	      7.05542558	     89.95437384	      0.00000000	      0.00000000
      3.31000000	      0.25507761	      3.49985821	     -1.32092015	      0.32470255	      0.93714729	     -1.43351952	    -12.48529684	     -6.85605948	    -23.40293509	    -18.88413751	     -0.32959038	     10.93533876	      6.77652281	    -14.67236995	     21.35053495	      1.30825683	     19.37562827	    -13.96195160	     -0.24368203	     -6.50118281	      0.64358285	      6.14810928	     -3.96839691	     -5.61665306	      7.99446397	      5.89978889	    -10.53504651	    -13.09530588	     33.62580690	     89.95437384	      0.00000000	      0.00000000	    -10.44254621	     11.87339180	     10.50235632	      7.11354372	     89.95437384	      0.00000000	      0.00000000
      3.32000000	      0.37121231	      3.72180709	     -1.55462987	      0.33447264	      0.93669212	     -1.43642139	    -12.87308737	     -7.58082468	    -23.40572616	    -19.58057026	     -0.34174542	     10.41106177	      6.86736751	    -14.64484651	     20.83632197	      1.02598628	     20.10800998	    -13.90577422	     -0.24270155	     -8.09285983	      0.87686475	      6.22125233	     -3.86696304	     -5.78777620	      8.00652748	      5.52573810	    -10.36444428	    -13.15873830	     33.28606686	     89.95437384	      0.00000000	      0.00000000	    -10.47025428	     11.76850971	     10.96171954	      7.10258323	     89.95437384	      0.00000000	      0.00000000
      3.33000000	      0.72165004	      4.68438375	     -1.94081393	      0.34459884	      0.93674755	     -1.43975963	    -13.33887701	     -9.48033395	    -24.12012908	    -20.78180343	     -0.36271089	     10.06918701	      8.63194166	    -15.78272139	     19.82483345	     -0.20873327	     20.83312198	    -13.21806750	     -0.23069880	     -9.38462937	      1.91263245	      3.10149484	     -3.97678935	     -6.78776603	      7.98963438	      5.27749873	    -10.17466816	    -12.89834612	     32.73996412	     89.95437384	      0.00000000	      0.00000000	    -10.48461875	     11.63750721	     12.70858697	      7.12805634	     89.95437384	      0.00000000	      0.00000000
      3.34000000	      0.92605367	      4.99516469	     -2.03898185	      0.35422267	      0.93679971	     -1.44292736	    -13.73094642	    -10.23553700	    -23.81686408	    -21.60191481	     -0.37702454	      9.34505272	      8.13327236	    -15.40795665	     19.60615933	     -0.55605311	     21.16980789	    -14.31875168	     -0.24990936	     -9.28300476	      2.35430222	      2.83877248	     -3.99046956	     -7.06985882	      7.83961197	      5.03202163	     -9.96677086	    -13.04662333	     32.09926650	     89.95437384	      0.00000000	      0.00000000	    -10.45168900	     11.57269969	     12.49510431	      7.12539333	     89.95437384	      0.00000000	      0.00000000
      3.35000000	      1.08878011	      5.51826448	     -2.24580239	      0.36390362	      0.93702411	     -1.44635244	    -13.90614184	    -11.35334974	    -23.52368081	    -22.68058946	     -0.39585096	      8.35308123	      7.66685281	    -14.92577678	     19.37137430	     -1.24630364	     20.74817500	    -15.54747058	     -0.27135455	     -8.33929372	      2.16565312	      2.34290604	     -3.91863822	     -7.55536436	      7.84133737	      4.73137784	     -9.74175574	    -13.38391441	     31.35736440	     89.95437384	      0.00000000	      0.00000000	    -10.39977318	     11.51477834	     12.28135002	      7.22470085	     89.95437384	      0.00000000	      0.00000000
      3.36000000	      1.13280797	      6.46231148	     -2.43975821	      0.37380126	      0.93735715	     -1.45002925	    -13.72779218	    -13.27664353	    -24.09246404	    -24.39316189	     -0.42574099	      7.54541621	      8.72559636	    -14.90661958	     19.16801957	     -2.49630064	     20.08879432	    -16.32746580	     -0.28496804	     -7.94347579	      2.52264375	      1.03100538	     -3.68886042	     -8.49526039	      7.92202080	      4.46028579	     -9.23973728	    -14.77774072	     30.34373773	     89.95437384	      0.00000000	      0.00000000	    -10.27699829	     11.54323992	     11.71307281	      7.28679939	     89.95437384	      0.00000000	      0.00000000
